<mxfile host="app.diagrams.net" modified="2023-04-23T08:04:23.058Z" agent="Mozilla/5.0 (Windows NT 10.0; Win64; x64) AppleWebKit/537.36 (KHTML, like Gecko) Chrome/112.0.0.0 Safari/537.36" etag="mHRS-eUkN-ac7Yagg1f1" version="21.2.1" type="github">
  <diagram name="Page-1" id="0783ab3e-0a74-02c8-0abd-f7b4e66b4bec">
    <mxGraphModel dx="1034" dy="438" grid="1" gridSize="10" guides="1" tooltips="1" connect="1" arrows="1" fold="1" page="1" pageScale="1" pageWidth="850" pageHeight="1100" background="none" math="0" shadow="0">
      <root>
        <mxCell id="0" />
        <mxCell id="1" parent="0" />
        <mxCell id="1c1d494c118603dd-1" value="Pool" style="swimlane;html=1;childLayout=stackLayout;startSize=20;rounded=0;shadow=0;comic=0;labelBackgroundColor=none;strokeWidth=1;fontFamily=Verdana;fontSize=12;align=center;" parent="1" vertex="1">
          <mxGeometry x="60" y="5" width="1943" height="1090" as="geometry" />
        </mxCell>
        <mxCell id="9OXR8-5eXW10tZyGMjdz-30" value="客户端" style="swimlane;html=1;startSize=20;" parent="1c1d494c118603dd-1" vertex="1">
          <mxGeometry y="20" width="250" height="1070" as="geometry">
            <mxRectangle x="500" y="20" width="40" height="970" as="alternateBounds" />
          </mxGeometry>
        </mxCell>
        <mxCell id="9OXR8-5eXW10tZyGMjdz-31" style="edgeStyle=orthogonalEdgeStyle;rounded=0;html=1;labelBackgroundColor=none;startArrow=none;startFill=0;startSize=5;endArrow=classicThin;endFill=1;endSize=5;jettySize=auto;orthogonalLoop=1;strokeWidth=1;fontFamily=Verdana;fontSize=12" parent="9OXR8-5eXW10tZyGMjdz-30" source="9OXR8-5eXW10tZyGMjdz-32" target="9OXR8-5eXW10tZyGMjdz-33" edge="1">
          <mxGeometry relative="1" as="geometry" />
        </mxCell>
        <mxCell id="9OXR8-5eXW10tZyGMjdz-32" value="" style="ellipse;whiteSpace=wrap;html=1;rounded=0;shadow=0;comic=0;labelBackgroundColor=none;strokeWidth=1;fillColor=#000000;fontFamily=Verdana;fontSize=12;align=center;" parent="9OXR8-5eXW10tZyGMjdz-30" vertex="1">
          <mxGeometry x="80" y="40" width="40" height="40" as="geometry" />
        </mxCell>
        <mxCell id="9OXR8-5eXW10tZyGMjdz-33" value="限时请求" style="rounded=1;whiteSpace=wrap;html=1;shadow=0;comic=0;labelBackgroundColor=none;strokeWidth=1;fontFamily=Verdana;fontSize=12;align=center;arcSize=50;" parent="9OXR8-5eXW10tZyGMjdz-30" vertex="1">
          <mxGeometry x="50" y="110" width="100" height="30" as="geometry" />
        </mxCell>
        <mxCell id="biAXR2ZOzDDZx1GqtgT6-7" style="edgeStyle=orthogonalEdgeStyle;rounded=0;orthogonalLoop=1;jettySize=auto;html=1;entryX=0.5;entryY=0;entryDx=0;entryDy=0;" edge="1" parent="9OXR8-5eXW10tZyGMjdz-30" source="9OXR8-5eXW10tZyGMjdz-98" target="biAXR2ZOzDDZx1GqtgT6-8">
          <mxGeometry relative="1" as="geometry">
            <mxPoint x="170" y="485" as="targetPoint" />
          </mxGeometry>
        </mxCell>
        <mxCell id="biAXR2ZOzDDZx1GqtgT6-9" style="edgeStyle=orthogonalEdgeStyle;rounded=0;orthogonalLoop=1;jettySize=auto;html=1;entryX=0.5;entryY=0;entryDx=0;entryDy=0;" edge="1" parent="9OXR8-5eXW10tZyGMjdz-30" source="9OXR8-5eXW10tZyGMjdz-98" target="biAXR2ZOzDDZx1GqtgT6-10">
          <mxGeometry relative="1" as="geometry">
            <mxPoint x="70" y="415" as="targetPoint" />
          </mxGeometry>
        </mxCell>
        <mxCell id="9OXR8-5eXW10tZyGMjdz-98" value="是否是正常返回" style="rhombus;whiteSpace=wrap;html=1;" parent="9OXR8-5eXW10tZyGMjdz-30" vertex="1">
          <mxGeometry x="130" y="325" width="80" height="80" as="geometry" />
        </mxCell>
        <mxCell id="biAXR2ZOzDDZx1GqtgT6-12" style="edgeStyle=orthogonalEdgeStyle;rounded=0;orthogonalLoop=1;jettySize=auto;html=1;entryX=0.5;entryY=0;entryDx=0;entryDy=0;" edge="1" parent="9OXR8-5eXW10tZyGMjdz-30" source="biAXR2ZOzDDZx1GqtgT6-8" target="biAXR2ZOzDDZx1GqtgT6-13">
          <mxGeometry relative="1" as="geometry">
            <mxPoint x="170" y="615" as="targetPoint" />
          </mxGeometry>
        </mxCell>
        <mxCell id="biAXR2ZOzDDZx1GqtgT6-8" value="直接渲染" style="rounded=1;whiteSpace=wrap;html=1;shadow=0;comic=0;labelBackgroundColor=none;strokeWidth=1;fontFamily=Verdana;fontSize=12;align=center;arcSize=50;" vertex="1" parent="9OXR8-5eXW10tZyGMjdz-30">
          <mxGeometry x="120" y="485" width="100" height="30" as="geometry" />
        </mxCell>
        <mxCell id="biAXR2ZOzDDZx1GqtgT6-11" style="edgeStyle=orthogonalEdgeStyle;rounded=0;orthogonalLoop=1;jettySize=auto;html=1;entryX=0;entryY=0.5;entryDx=0;entryDy=0;" edge="1" parent="9OXR8-5eXW10tZyGMjdz-30" source="biAXR2ZOzDDZx1GqtgT6-10" target="biAXR2ZOzDDZx1GqtgT6-8">
          <mxGeometry relative="1" as="geometry" />
        </mxCell>
        <mxCell id="biAXR2ZOzDDZx1GqtgT6-10" value="读取兜底" style="rounded=1;whiteSpace=wrap;html=1;shadow=0;comic=0;labelBackgroundColor=none;strokeWidth=1;fontFamily=Verdana;fontSize=12;align=center;arcSize=50;" vertex="1" parent="9OXR8-5eXW10tZyGMjdz-30">
          <mxGeometry x="20" y="415" width="100" height="30" as="geometry" />
        </mxCell>
        <mxCell id="biAXR2ZOzDDZx1GqtgT6-13" value="" style="shape=mxgraph.bpmn.shape;html=1;verticalLabelPosition=bottom;labelBackgroundColor=#ffffff;verticalAlign=top;perimeter=ellipsePerimeter;outline=end;symbol=terminate;rounded=0;shadow=0;comic=0;strokeWidth=1;fontFamily=Verdana;fontSize=12;align=center;" vertex="1" parent="9OXR8-5eXW10tZyGMjdz-30">
          <mxGeometry x="150" y="605" width="40" height="40" as="geometry" />
        </mxCell>
        <mxCell id="1c1d494c118603dd-2" value="网关" style="swimlane;html=1;startSize=20;" parent="1c1d494c118603dd-1" vertex="1">
          <mxGeometry x="250" y="20" width="420" height="1070" as="geometry" />
        </mxCell>
        <mxCell id="1c1d494c118603dd-34" style="edgeStyle=none;rounded=0;html=1;labelBackgroundColor=none;startArrow=none;startFill=0;startSize=5;endArrow=classicThin;endFill=1;endSize=5;jettySize=auto;orthogonalLoop=1;strokeWidth=1;fontFamily=Verdana;fontSize=12" parent="1c1d494c118603dd-2" source="1c1d494c118603dd-6" target="1c1d494c118603dd-10" edge="1">
          <mxGeometry relative="1" as="geometry" />
        </mxCell>
        <mxCell id="1c1d494c118603dd-6" value="限时请求" style="rounded=1;whiteSpace=wrap;html=1;shadow=0;comic=0;labelBackgroundColor=none;strokeWidth=1;fontFamily=Verdana;fontSize=12;align=center;arcSize=50;" parent="1c1d494c118603dd-2" vertex="1">
          <mxGeometry x="140" y="110" width="100" height="30" as="geometry" />
        </mxCell>
        <mxCell id="1c1d494c118603dd-7" value="直接返回特定错误" style="rounded=1;whiteSpace=wrap;html=1;shadow=0;comic=0;labelBackgroundColor=none;strokeWidth=1;fontFamily=Verdana;fontSize=12;align=center;arcSize=50;" parent="1c1d494c118603dd-2" vertex="1">
          <mxGeometry x="140" y="256" width="100" height="30" as="geometry" />
        </mxCell>
        <mxCell id="1c1d494c118603dd-35" style="edgeStyle=none;rounded=0;html=1;labelBackgroundColor=none;startArrow=none;startFill=0;startSize=5;endArrow=classicThin;endFill=1;endSize=5;jettySize=auto;orthogonalLoop=1;strokeWidth=1;fontFamily=Verdana;fontSize=12" parent="1c1d494c118603dd-2" source="1c1d494c118603dd-10" target="1c1d494c118603dd-7" edge="1">
          <mxGeometry relative="1" as="geometry" />
        </mxCell>
        <mxCell id="1c1d494c118603dd-10" value="fellback" style="rounded=0;whiteSpace=wrap;html=1;shadow=0;comic=0;labelBackgroundColor=none;strokeWidth=1;fontFamily=Verdana;fontSize=12;align=center;arcSize=50;" parent="1c1d494c118603dd-2" vertex="1">
          <mxGeometry x="155" y="186" width="70" height="30" as="geometry" />
        </mxCell>
        <mxCell id="1c1d494c118603dd-46" style="edgeStyle=none;rounded=0;html=1;labelBackgroundColor=none;startArrow=none;startFill=0;startSize=5;endArrow=oval;endFill=0;endSize=5;jettySize=auto;orthogonalLoop=1;strokeWidth=1;fontFamily=Verdana;fontSize=12;dashed=1;" parent="1c1d494c118603dd-2" source="1c1d494c118603dd-21" target="1c1d494c118603dd-6" edge="1">
          <mxGeometry relative="1" as="geometry" />
        </mxCell>
        <mxCell id="1c1d494c118603dd-47" style="edgeStyle=none;rounded=0;html=1;dashed=1;labelBackgroundColor=none;startArrow=none;startFill=0;startSize=5;endArrow=oval;endFill=0;endSize=5;jettySize=auto;orthogonalLoop=1;strokeWidth=1;fontFamily=Verdana;fontSize=12" parent="1c1d494c118603dd-2" source="1c1d494c118603dd-21" target="1c1d494c118603dd-10" edge="1">
          <mxGeometry relative="1" as="geometry" />
        </mxCell>
        <mxCell id="1c1d494c118603dd-21" value="错误超限&lt;br&gt;超时未返回" style="shape=note;whiteSpace=wrap;html=1;rounded=0;shadow=0;comic=0;labelBackgroundColor=none;strokeWidth=1;fontFamily=Verdana;fontSize=12;align=center;size=20;" parent="1c1d494c118603dd-2" vertex="1">
          <mxGeometry x="20" y="180" width="85" height="42" as="geometry" />
        </mxCell>
        <mxCell id="9OXR8-5eXW10tZyGMjdz-366" value="透传" style="rounded=1;whiteSpace=wrap;html=1;shadow=0;comic=0;labelBackgroundColor=none;strokeWidth=1;fontFamily=Verdana;fontSize=12;align=center;arcSize=50;" parent="1c1d494c118603dd-2" vertex="1">
          <mxGeometry x="135" y="505" width="100" height="30" as="geometry" />
        </mxCell>
        <mxCell id="1c1d494c118603dd-3" value="后端" style="swimlane;html=1;startSize=20;" parent="1c1d494c118603dd-1" vertex="1">
          <mxGeometry x="670" y="20" width="440" height="1070" as="geometry" />
        </mxCell>
        <mxCell id="9OXR8-5eXW10tZyGMjdz-101" style="edgeStyle=orthogonalEdgeStyle;rounded=0;orthogonalLoop=1;jettySize=auto;html=1;entryX=0.5;entryY=0;entryDx=0;entryDy=0;" parent="1c1d494c118603dd-3" source="9OXR8-5eXW10tZyGMjdz-93" target="9OXR8-5eXW10tZyGMjdz-100" edge="1">
          <mxGeometry relative="1" as="geometry" />
        </mxCell>
        <mxCell id="9OXR8-5eXW10tZyGMjdz-93" value="处理请求" style="rounded=1;whiteSpace=wrap;html=1;shadow=0;comic=0;labelBackgroundColor=none;strokeWidth=1;fontFamily=Verdana;fontSize=12;align=center;arcSize=50;" parent="1c1d494c118603dd-3" vertex="1">
          <mxGeometry x="237" y="110" width="100" height="30" as="geometry" />
        </mxCell>
        <mxCell id="9OXR8-5eXW10tZyGMjdz-372" style="edgeStyle=orthogonalEdgeStyle;rounded=0;orthogonalLoop=1;jettySize=auto;html=1;entryX=0.5;entryY=0;entryDx=0;entryDy=0;" parent="1c1d494c118603dd-3" source="9OXR8-5eXW10tZyGMjdz-100" target="9OXR8-5eXW10tZyGMjdz-241" edge="1">
          <mxGeometry relative="1" as="geometry">
            <mxPoint x="170" y="234" as="targetPoint" />
          </mxGeometry>
        </mxCell>
        <mxCell id="9OXR8-5eXW10tZyGMjdz-375" value="是" style="edgeLabel;html=1;align=center;verticalAlign=middle;resizable=0;points=[];" parent="9OXR8-5eXW10tZyGMjdz-372" vertex="1" connectable="0">
          <mxGeometry x="0.0501" y="2" relative="1" as="geometry">
            <mxPoint as="offset" />
          </mxGeometry>
        </mxCell>
        <mxCell id="9OXR8-5eXW10tZyGMjdz-100" value="是否开启逻辑降级" style="rhombus;whiteSpace=wrap;html=1;" parent="1c1d494c118603dd-3" vertex="1">
          <mxGeometry x="247" y="194" width="80" height="80" as="geometry" />
        </mxCell>
        <mxCell id="9OXR8-5eXW10tZyGMjdz-243" value="" style="edgeStyle=orthogonalEdgeStyle;rounded=0;orthogonalLoop=1;jettySize=auto;html=1;" parent="1c1d494c118603dd-3" source="9OXR8-5eXW10tZyGMjdz-241" edge="1">
          <mxGeometry relative="1" as="geometry">
            <mxPoint x="140" y="445" as="targetPoint" />
            <Array as="points">
              <mxPoint x="140" y="530" />
            </Array>
          </mxGeometry>
        </mxCell>
        <mxCell id="9OXR8-5eXW10tZyGMjdz-374" value="是" style="edgeLabel;html=1;align=center;verticalAlign=middle;resizable=0;points=[];" parent="9OXR8-5eXW10tZyGMjdz-243" vertex="1" connectable="0">
          <mxGeometry x="-0.4902" y="1" relative="1" as="geometry">
            <mxPoint y="35" as="offset" />
          </mxGeometry>
        </mxCell>
        <mxCell id="9OXR8-5eXW10tZyGMjdz-241" value="是否开启redis降级" style="rhombus;whiteSpace=wrap;html=1;" parent="1c1d494c118603dd-3" vertex="1">
          <mxGeometry x="100" y="260" width="80" height="80" as="geometry" />
        </mxCell>
        <mxCell id="9OXR8-5eXW10tZyGMjdz-423" style="edgeStyle=orthogonalEdgeStyle;rounded=0;orthogonalLoop=1;jettySize=auto;html=1;entryX=0.5;entryY=0;entryDx=0;entryDy=0;" parent="1c1d494c118603dd-3" source="9OXR8-5eXW10tZyGMjdz-242" target="9OXR8-5eXW10tZyGMjdz-369" edge="1">
          <mxGeometry relative="1" as="geometry" />
        </mxCell>
        <mxCell id="9OXR8-5eXW10tZyGMjdz-242" value="是否开启本地降级" style="rhombus;whiteSpace=wrap;html=1;" parent="1c1d494c118603dd-3" vertex="1">
          <mxGeometry x="100" y="480" width="80" height="80" as="geometry" />
        </mxCell>
        <mxCell id="9OXR8-5eXW10tZyGMjdz-369" value="读取本地数据" style="rounded=1;whiteSpace=wrap;html=1;shadow=0;comic=0;labelBackgroundColor=none;strokeWidth=1;fontFamily=Verdana;fontSize=12;align=center;arcSize=50;" parent="1c1d494c118603dd-3" vertex="1">
          <mxGeometry x="90" y="645" width="100" height="30" as="geometry" />
        </mxCell>
        <mxCell id="9OXR8-5eXW10tZyGMjdz-378" style="edgeStyle=orthogonalEdgeStyle;rounded=0;orthogonalLoop=1;jettySize=auto;html=1;entryX=1;entryY=0.5;entryDx=0;entryDy=0;" parent="1c1d494c118603dd-3" source="9OXR8-5eXW10tZyGMjdz-377" target="9OXR8-5eXW10tZyGMjdz-242" edge="1">
          <mxGeometry relative="1" as="geometry" />
        </mxCell>
        <mxCell id="9OXR8-5eXW10tZyGMjdz-379" value="否" style="edgeLabel;html=1;align=center;verticalAlign=middle;resizable=0;points=[];" parent="9OXR8-5eXW10tZyGMjdz-378" vertex="1" connectable="0">
          <mxGeometry x="-0.2121" y="-3" relative="1" as="geometry">
            <mxPoint as="offset" />
          </mxGeometry>
        </mxCell>
        <mxCell id="biAXR2ZOzDDZx1GqtgT6-5" style="edgeStyle=orthogonalEdgeStyle;rounded=0;orthogonalLoop=1;jettySize=auto;html=1;entryX=0.5;entryY=0;entryDx=0;entryDy=0;" edge="1" parent="1c1d494c118603dd-3" source="9OXR8-5eXW10tZyGMjdz-377" target="biAXR2ZOzDDZx1GqtgT6-4">
          <mxGeometry relative="1" as="geometry" />
        </mxCell>
        <mxCell id="9OXR8-5eXW10tZyGMjdz-377" value="结果正确&lt;br&gt;数据正常" style="rhombus;whiteSpace=wrap;html=1;" parent="1c1d494c118603dd-3" vertex="1">
          <mxGeometry x="286" y="480" width="80" height="80" as="geometry" />
        </mxCell>
        <mxCell id="9OXR8-5eXW10tZyGMjdz-415" value="" style="html=1;points=[];perimeter=orthogonalPerimeter;outlineConnect=0;targetShapes=umlLifeline;portConstraint=eastwest;newEdgeStyle={&quot;edgeStyle&quot;:&quot;elbowEdgeStyle&quot;,&quot;elbow&quot;:&quot;vertical&quot;,&quot;curved&quot;:0,&quot;rounded&quot;:0};" parent="1c1d494c118603dd-3" vertex="1">
          <mxGeometry x="400" y="135" width="10" height="80" as="geometry" />
        </mxCell>
        <mxCell id="9OXR8-5eXW10tZyGMjdz-389" style="edgeStyle=orthogonalEdgeStyle;rounded=0;orthogonalLoop=1;jettySize=auto;html=1;" parent="1c1d494c118603dd-3" source="9OXR8-5eXW10tZyGMjdz-100" target="9OXR8-5eXW10tZyGMjdz-415" edge="1">
          <mxGeometry relative="1" as="geometry" />
        </mxCell>
        <mxCell id="biAXR2ZOzDDZx1GqtgT6-6" style="edgeStyle=orthogonalEdgeStyle;rounded=0;orthogonalLoop=1;jettySize=auto;html=1;entryX=0.5;entryY=0;entryDx=0;entryDy=0;" edge="1" parent="1c1d494c118603dd-3" source="biAXR2ZOzDDZx1GqtgT6-4" target="biAXR2ZOzDDZx1GqtgT6-3">
          <mxGeometry relative="1" as="geometry" />
        </mxCell>
        <mxCell id="biAXR2ZOzDDZx1GqtgT6-4" value="按需写入缓存" style="rounded=1;whiteSpace=wrap;html=1;shadow=0;comic=0;labelBackgroundColor=none;strokeWidth=1;fontFamily=Verdana;fontSize=12;align=center;arcSize=50;" vertex="1" parent="1c1d494c118603dd-3">
          <mxGeometry x="276" y="615" width="100" height="30" as="geometry" />
        </mxCell>
        <mxCell id="biAXR2ZOzDDZx1GqtgT6-3" value="按需写入本地数据" style="rounded=1;whiteSpace=wrap;html=1;shadow=0;comic=0;labelBackgroundColor=none;strokeWidth=1;fontFamily=Verdana;fontSize=12;align=center;arcSize=50;" vertex="1" parent="1c1d494c118603dd-3">
          <mxGeometry x="276" y="675" width="100" height="30" as="geometry" />
        </mxCell>
        <mxCell id="1c1d494c118603dd-4" value="redis" style="swimlane;html=1;startSize=20;" parent="1c1d494c118603dd-1" vertex="1">
          <mxGeometry x="1110" y="20" width="333" height="1070" as="geometry">
            <mxRectangle x="500" y="20" width="40" height="970" as="alternateBounds" />
          </mxGeometry>
        </mxCell>
        <mxCell id="9OXR8-5eXW10tZyGMjdz-392" style="edgeStyle=orthogonalEdgeStyle;rounded=0;orthogonalLoop=1;jettySize=auto;html=1;entryX=0.5;entryY=0;entryDx=0;entryDy=0;" parent="1c1d494c118603dd-4" source="1c1d494c118603dd-5" target="9OXR8-5eXW10tZyGMjdz-391" edge="1">
          <mxGeometry relative="1" as="geometry" />
        </mxCell>
        <mxCell id="1c1d494c118603dd-5" value="读取redis" style="rounded=1;whiteSpace=wrap;html=1;shadow=0;comic=0;labelBackgroundColor=none;strokeWidth=1;fontFamily=Verdana;fontSize=12;align=center;arcSize=50;" parent="1c1d494c118603dd-4" vertex="1">
          <mxGeometry x="190" y="219" width="100" height="30" as="geometry" />
        </mxCell>
        <mxCell id="60571a20871a0731-5" value="" style="shape=mxgraph.bpmn.shape;html=1;verticalLabelPosition=bottom;labelBackgroundColor=#ffffff;verticalAlign=top;perimeter=ellipsePerimeter;outline=end;symbol=terminate;rounded=0;shadow=0;comic=0;strokeWidth=1;fontFamily=Verdana;fontSize=12;align=center;" parent="1c1d494c118603dd-4" vertex="1">
          <mxGeometry x="130" y="665" width="40" height="40" as="geometry" />
        </mxCell>
        <mxCell id="9OXR8-5eXW10tZyGMjdz-394" value="" style="edgeStyle=orthogonalEdgeStyle;rounded=0;orthogonalLoop=1;jettySize=auto;html=1;" parent="1c1d494c118603dd-4" source="9OXR8-5eXW10tZyGMjdz-391" target="9OXR8-5eXW10tZyGMjdz-393" edge="1">
          <mxGeometry relative="1" as="geometry" />
        </mxCell>
        <mxCell id="9OXR8-5eXW10tZyGMjdz-395" value="否" style="edgeLabel;html=1;align=center;verticalAlign=middle;resizable=0;points=[];" parent="9OXR8-5eXW10tZyGMjdz-394" vertex="1" connectable="0">
          <mxGeometry x="-0.2267" y="1" relative="1" as="geometry">
            <mxPoint as="offset" />
          </mxGeometry>
        </mxCell>
        <mxCell id="9OXR8-5eXW10tZyGMjdz-391" value="结果正确&lt;br&gt;数据正常" style="rhombus;whiteSpace=wrap;html=1;" parent="1c1d494c118603dd-4" vertex="1">
          <mxGeometry x="200" y="315" width="80" height="80" as="geometry" />
        </mxCell>
        <mxCell id="9OXR8-5eXW10tZyGMjdz-407" style="edgeStyle=orthogonalEdgeStyle;rounded=0;orthogonalLoop=1;jettySize=auto;html=1;entryX=0.5;entryY=0;entryDx=0;entryDy=0;" parent="1c1d494c118603dd-4" source="9OXR8-5eXW10tZyGMjdz-393" target="9OXR8-5eXW10tZyGMjdz-408" edge="1">
          <mxGeometry relative="1" as="geometry">
            <mxPoint x="240" y="595" as="targetPoint" />
          </mxGeometry>
        </mxCell>
        <mxCell id="9OXR8-5eXW10tZyGMjdz-393" value="是否读取数据库降级" style="rhombus;whiteSpace=wrap;html=1;" parent="1c1d494c118603dd-4" vertex="1">
          <mxGeometry x="200" y="458" width="80" height="80" as="geometry" />
        </mxCell>
        <mxCell id="9OXR8-5eXW10tZyGMjdz-397" style="edgeStyle=orthogonalEdgeStyle;rounded=0;orthogonalLoop=1;jettySize=auto;html=1;entryX=0.5;entryY=0;entryDx=0;entryDy=0;" parent="1c1d494c118603dd-4" source="9OXR8-5eXW10tZyGMjdz-396" target="9OXR8-5eXW10tZyGMjdz-398" edge="1">
          <mxGeometry relative="1" as="geometry">
            <mxPoint x="60" y="375" as="targetPoint" />
          </mxGeometry>
        </mxCell>
        <mxCell id="9OXR8-5eXW10tZyGMjdz-399" value="是" style="edgeLabel;html=1;align=center;verticalAlign=middle;resizable=0;points=[];" parent="9OXR8-5eXW10tZyGMjdz-397" vertex="1" connectable="0">
          <mxGeometry x="-0.3333" y="3" relative="1" as="geometry">
            <mxPoint as="offset" />
          </mxGeometry>
        </mxCell>
        <mxCell id="9OXR8-5eXW10tZyGMjdz-400" style="edgeStyle=orthogonalEdgeStyle;rounded=0;orthogonalLoop=1;jettySize=auto;html=1;entryX=0;entryY=0.5;entryDx=0;entryDy=0;" parent="1c1d494c118603dd-4" source="9OXR8-5eXW10tZyGMjdz-396" target="1c1d494c118603dd-5" edge="1">
          <mxGeometry relative="1" as="geometry" />
        </mxCell>
        <mxCell id="9OXR8-5eXW10tZyGMjdz-396" value="是否开关、限流" style="rhombus;whiteSpace=wrap;html=1;" parent="1c1d494c118603dd-4" vertex="1">
          <mxGeometry x="40" y="194" width="80" height="80" as="geometry" />
        </mxCell>
        <mxCell id="9OXR8-5eXW10tZyGMjdz-418" style="edgeStyle=orthogonalEdgeStyle;rounded=0;orthogonalLoop=1;jettySize=auto;html=1;" parent="1c1d494c118603dd-4" source="9OXR8-5eXW10tZyGMjdz-398" target="60571a20871a0731-5" edge="1">
          <mxGeometry relative="1" as="geometry">
            <Array as="points">
              <mxPoint x="80" y="605" />
              <mxPoint x="150" y="605" />
            </Array>
          </mxGeometry>
        </mxCell>
        <mxCell id="9OXR8-5eXW10tZyGMjdz-398" value="fallback" style="rounded=1;whiteSpace=wrap;html=1;shadow=0;comic=0;labelBackgroundColor=none;strokeWidth=1;fontFamily=Verdana;fontSize=12;align=center;arcSize=50;" parent="1c1d494c118603dd-4" vertex="1">
          <mxGeometry x="30" y="335" width="100" height="30" as="geometry" />
        </mxCell>
        <mxCell id="9OXR8-5eXW10tZyGMjdz-419" style="edgeStyle=orthogonalEdgeStyle;rounded=0;orthogonalLoop=1;jettySize=auto;html=1;entryX=0.5;entryY=0;entryDx=0;entryDy=0;" parent="1c1d494c118603dd-4" source="9OXR8-5eXW10tZyGMjdz-408" target="60571a20871a0731-5" edge="1">
          <mxGeometry relative="1" as="geometry" />
        </mxCell>
        <mxCell id="9OXR8-5eXW10tZyGMjdz-408" value="fallback" style="rounded=1;whiteSpace=wrap;html=1;shadow=0;comic=0;labelBackgroundColor=none;strokeWidth=1;fontFamily=Verdana;fontSize=12;align=center;arcSize=50;" parent="1c1d494c118603dd-4" vertex="1">
          <mxGeometry x="190" y="590" width="100" height="30" as="geometry" />
        </mxCell>
        <mxCell id="9OXR8-5eXW10tZyGMjdz-1" value="数据库" style="swimlane;html=1;startSize=20;" parent="1c1d494c118603dd-1" vertex="1">
          <mxGeometry x="1443" y="20" width="250" height="1070" as="geometry">
            <mxRectangle x="500" y="20" width="40" height="970" as="alternateBounds" />
          </mxGeometry>
        </mxCell>
        <mxCell id="9OXR8-5eXW10tZyGMjdz-440" style="edgeStyle=orthogonalEdgeStyle;rounded=0;orthogonalLoop=1;jettySize=auto;html=1;" parent="9OXR8-5eXW10tZyGMjdz-1" source="9OXR8-5eXW10tZyGMjdz-6" target="9OXR8-5eXW10tZyGMjdz-438" edge="1">
          <mxGeometry relative="1" as="geometry" />
        </mxCell>
        <mxCell id="9OXR8-5eXW10tZyGMjdz-6" value="读取数据库" style="rounded=1;whiteSpace=wrap;html=1;shadow=0;comic=0;labelBackgroundColor=none;strokeWidth=1;fontFamily=Verdana;fontSize=12;align=center;arcSize=50;" parent="9OXR8-5eXW10tZyGMjdz-1" vertex="1">
          <mxGeometry x="150" y="293" width="100" height="30" as="geometry" />
        </mxCell>
        <mxCell id="9OXR8-5eXW10tZyGMjdz-12" style="edgeStyle=none;rounded=0;html=1;labelBackgroundColor=none;startArrow=none;startFill=0;startSize=5;endArrow=classicThin;endFill=1;endSize=5;jettySize=auto;orthogonalLoop=1;strokeWidth=1;fontFamily=Verdana;fontSize=12" parent="9OXR8-5eXW10tZyGMjdz-1" edge="1">
          <mxGeometry relative="1" as="geometry">
            <mxPoint x="30" y="640" as="sourcePoint" />
          </mxGeometry>
        </mxCell>
        <mxCell id="9OXR8-5eXW10tZyGMjdz-25" style="edgeStyle=none;rounded=0;html=1;dashed=1;labelBackgroundColor=none;startArrow=none;startFill=0;startSize=5;endArrow=oval;endFill=0;endSize=5;jettySize=auto;orthogonalLoop=1;strokeWidth=1;fontFamily=Verdana;fontSize=12" parent="9OXR8-5eXW10tZyGMjdz-1" edge="1">
          <mxGeometry relative="1" as="geometry">
            <mxPoint x="156.96428571428578" y="640" as="sourcePoint" />
          </mxGeometry>
        </mxCell>
        <mxCell id="9OXR8-5eXW10tZyGMjdz-402" style="edgeStyle=orthogonalEdgeStyle;rounded=0;orthogonalLoop=1;jettySize=auto;html=1;entryX=0;entryY=0.5;entryDx=0;entryDy=0;" parent="9OXR8-5eXW10tZyGMjdz-1" source="9OXR8-5eXW10tZyGMjdz-401" target="9OXR8-5eXW10tZyGMjdz-6" edge="1">
          <mxGeometry relative="1" as="geometry" />
        </mxCell>
        <mxCell id="9OXR8-5eXW10tZyGMjdz-403" style="edgeStyle=orthogonalEdgeStyle;rounded=0;orthogonalLoop=1;jettySize=auto;html=1;entryX=0.5;entryY=0;entryDx=0;entryDy=0;" parent="9OXR8-5eXW10tZyGMjdz-1" source="9OXR8-5eXW10tZyGMjdz-401" target="9OXR8-5eXW10tZyGMjdz-404" edge="1">
          <mxGeometry relative="1" as="geometry">
            <mxPoint x="75" y="390" as="targetPoint" />
          </mxGeometry>
        </mxCell>
        <mxCell id="9OXR8-5eXW10tZyGMjdz-401" value="是否开关、限流" style="rhombus;whiteSpace=wrap;html=1;" parent="9OXR8-5eXW10tZyGMjdz-1" vertex="1">
          <mxGeometry x="35" y="268" width="80" height="80" as="geometry" />
        </mxCell>
        <mxCell id="9OXR8-5eXW10tZyGMjdz-444" style="edgeStyle=orthogonalEdgeStyle;rounded=0;orthogonalLoop=1;jettySize=auto;html=1;" parent="9OXR8-5eXW10tZyGMjdz-1" source="9OXR8-5eXW10tZyGMjdz-404" target="9OXR8-5eXW10tZyGMjdz-441" edge="1">
          <mxGeometry relative="1" as="geometry">
            <Array as="points">
              <mxPoint x="75" y="615" />
              <mxPoint x="135" y="615" />
            </Array>
          </mxGeometry>
        </mxCell>
        <mxCell id="9OXR8-5eXW10tZyGMjdz-404" value="fallback" style="rounded=1;whiteSpace=wrap;html=1;shadow=0;comic=0;labelBackgroundColor=none;strokeWidth=1;fontFamily=Verdana;fontSize=12;align=center;arcSize=50;" parent="9OXR8-5eXW10tZyGMjdz-1" vertex="1">
          <mxGeometry x="25" y="395" width="100" height="30" as="geometry" />
        </mxCell>
        <mxCell id="9OXR8-5eXW10tZyGMjdz-438" value="结果是否正确" style="rhombus;whiteSpace=wrap;html=1;" parent="9OXR8-5eXW10tZyGMjdz-1" vertex="1">
          <mxGeometry x="160" y="370" width="80" height="80" as="geometry" />
        </mxCell>
        <mxCell id="9OXR8-5eXW10tZyGMjdz-443" style="edgeStyle=orthogonalEdgeStyle;rounded=0;orthogonalLoop=1;jettySize=auto;html=1;entryX=0.5;entryY=0;entryDx=0;entryDy=0;" parent="9OXR8-5eXW10tZyGMjdz-1" source="9OXR8-5eXW10tZyGMjdz-439" target="9OXR8-5eXW10tZyGMjdz-441" edge="1">
          <mxGeometry relative="1" as="geometry">
            <Array as="points">
              <mxPoint x="200" y="615" />
              <mxPoint x="135" y="615" />
            </Array>
          </mxGeometry>
        </mxCell>
        <mxCell id="9OXR8-5eXW10tZyGMjdz-439" value="处理结果" style="rounded=1;whiteSpace=wrap;html=1;shadow=0;comic=0;labelBackgroundColor=none;strokeWidth=1;fontFamily=Verdana;fontSize=12;align=center;arcSize=50;" parent="9OXR8-5eXW10tZyGMjdz-1" vertex="1">
          <mxGeometry x="150" y="495" width="100" height="30" as="geometry" />
        </mxCell>
        <mxCell id="9OXR8-5eXW10tZyGMjdz-437" style="edgeStyle=orthogonalEdgeStyle;rounded=0;orthogonalLoop=1;jettySize=auto;html=1;entryX=0.5;entryY=0;entryDx=0;entryDy=0;" parent="9OXR8-5eXW10tZyGMjdz-1" source="9OXR8-5eXW10tZyGMjdz-438" target="9OXR8-5eXW10tZyGMjdz-439" edge="1">
          <mxGeometry relative="1" as="geometry">
            <mxPoint x="200" y="558" as="targetPoint" />
          </mxGeometry>
        </mxCell>
        <mxCell id="9OXR8-5eXW10tZyGMjdz-441" value="" style="shape=mxgraph.bpmn.shape;html=1;verticalLabelPosition=bottom;labelBackgroundColor=#ffffff;verticalAlign=top;perimeter=ellipsePerimeter;outline=end;symbol=terminate;rounded=0;shadow=0;comic=0;strokeWidth=1;fontFamily=Verdana;fontSize=12;align=center;" parent="9OXR8-5eXW10tZyGMjdz-1" vertex="1">
          <mxGeometry x="115" y="675" width="40" height="40" as="geometry" />
        </mxCell>
        <mxCell id="9OXR8-5eXW10tZyGMjdz-92" style="edgeStyle=orthogonalEdgeStyle;rounded=0;orthogonalLoop=1;jettySize=auto;html=1;" parent="1c1d494c118603dd-1" source="9OXR8-5eXW10tZyGMjdz-33" target="1c1d494c118603dd-6" edge="1">
          <mxGeometry relative="1" as="geometry" />
        </mxCell>
        <mxCell id="9OXR8-5eXW10tZyGMjdz-94" value="" style="edgeStyle=orthogonalEdgeStyle;rounded=0;orthogonalLoop=1;jettySize=auto;html=1;" parent="1c1d494c118603dd-1" source="1c1d494c118603dd-6" target="9OXR8-5eXW10tZyGMjdz-93" edge="1">
          <mxGeometry relative="1" as="geometry" />
        </mxCell>
        <mxCell id="9OXR8-5eXW10tZyGMjdz-97" value="" style="edgeStyle=orthogonalEdgeStyle;rounded=0;orthogonalLoop=1;jettySize=auto;html=1;entryX=1;entryY=0.5;entryDx=0;entryDy=0;" parent="1c1d494c118603dd-1" source="1c1d494c118603dd-7" target="9OXR8-5eXW10tZyGMjdz-98" edge="1">
          <mxGeometry relative="1" as="geometry">
            <mxPoint x="150" y="385" as="targetPoint" />
          </mxGeometry>
        </mxCell>
        <mxCell id="9OXR8-5eXW10tZyGMjdz-385" style="edgeStyle=orthogonalEdgeStyle;rounded=0;orthogonalLoop=1;jettySize=auto;html=1;entryX=1;entryY=0.5;entryDx=0;entryDy=0;" parent="1c1d494c118603dd-1" source="9OXR8-5eXW10tZyGMjdz-242" target="9OXR8-5eXW10tZyGMjdz-366" edge="1">
          <mxGeometry relative="1" as="geometry" />
        </mxCell>
        <mxCell id="9OXR8-5eXW10tZyGMjdz-386" value="是" style="edgeLabel;html=1;align=center;verticalAlign=middle;resizable=0;points=[];" parent="9OXR8-5eXW10tZyGMjdz-385" vertex="1" connectable="0">
          <mxGeometry x="-0.8233" y="1" relative="1" as="geometry">
            <mxPoint as="offset" />
          </mxGeometry>
        </mxCell>
        <mxCell id="9OXR8-5eXW10tZyGMjdz-406" style="edgeStyle=orthogonalEdgeStyle;rounded=0;orthogonalLoop=1;jettySize=auto;html=1;entryX=0.5;entryY=0;entryDx=0;entryDy=0;" parent="1c1d494c118603dd-1" source="9OXR8-5eXW10tZyGMjdz-393" target="9OXR8-5eXW10tZyGMjdz-401" edge="1">
          <mxGeometry relative="1" as="geometry">
            <mxPoint x="1498" y="135" as="targetPoint" />
          </mxGeometry>
        </mxCell>
        <mxCell id="biAXR2ZOzDDZx1GqtgT6-1" value="否" style="edgeLabel;html=1;align=center;verticalAlign=middle;resizable=0;points=[];" vertex="1" connectable="0" parent="9OXR8-5eXW10tZyGMjdz-406">
          <mxGeometry x="-0.6868" y="3" relative="1" as="geometry">
            <mxPoint as="offset" />
          </mxGeometry>
        </mxCell>
        <mxCell id="9OXR8-5eXW10tZyGMjdz-416" style="edgeStyle=elbowEdgeStyle;rounded=0;orthogonalLoop=1;jettySize=auto;html=1;elbow=vertical;curved=0;entryX=0.5;entryY=0;entryDx=0;entryDy=0;" parent="1c1d494c118603dd-1" source="9OXR8-5eXW10tZyGMjdz-415" target="9OXR8-5eXW10tZyGMjdz-396" edge="1">
          <mxGeometry relative="1" as="geometry">
            <mxPoint x="1170" y="105" as="targetPoint" />
          </mxGeometry>
        </mxCell>
        <mxCell id="9OXR8-5eXW10tZyGMjdz-417" style="edgeStyle=elbowEdgeStyle;rounded=0;orthogonalLoop=1;jettySize=auto;html=1;elbow=vertical;curved=0;" parent="1c1d494c118603dd-1" source="9OXR8-5eXW10tZyGMjdz-415" target="9OXR8-5eXW10tZyGMjdz-401" edge="1">
          <mxGeometry relative="1" as="geometry">
            <mxPoint x="1498" y="135" as="targetPoint" />
            <Array as="points">
              <mxPoint x="1090" y="185" />
              <mxPoint x="1280" y="95" />
            </Array>
          </mxGeometry>
        </mxCell>
        <mxCell id="9OXR8-5eXW10tZyGMjdz-424" style="edgeStyle=orthogonalEdgeStyle;rounded=0;orthogonalLoop=1;jettySize=auto;html=1;entryX=0.5;entryY=1;entryDx=0;entryDy=0;exitX=0.5;exitY=1;exitDx=0;exitDy=0;" parent="1c1d494c118603dd-1" source="biAXR2ZOzDDZx1GqtgT6-3" target="9OXR8-5eXW10tZyGMjdz-366" edge="1">
          <mxGeometry relative="1" as="geometry">
            <Array as="points">
              <mxPoint x="996" y="795" />
              <mxPoint x="435" y="795" />
            </Array>
            <mxPoint x="1000" y="765" as="sourcePoint" />
          </mxGeometry>
        </mxCell>
        <mxCell id="9OXR8-5eXW10tZyGMjdz-426" style="edgeStyle=orthogonalEdgeStyle;rounded=0;orthogonalLoop=1;jettySize=auto;html=1;entryX=1;entryY=0.5;entryDx=0;entryDy=0;" parent="1c1d494c118603dd-1" source="9OXR8-5eXW10tZyGMjdz-369" target="9OXR8-5eXW10tZyGMjdz-366" edge="1">
          <mxGeometry relative="1" as="geometry" />
        </mxCell>
        <mxCell id="9OXR8-5eXW10tZyGMjdz-383" style="edgeStyle=orthogonalEdgeStyle;rounded=0;orthogonalLoop=1;jettySize=auto;html=1;entryX=0.5;entryY=0;entryDx=0;entryDy=0;" parent="1c1d494c118603dd-1" source="9OXR8-5eXW10tZyGMjdz-241" target="9OXR8-5eXW10tZyGMjdz-396" edge="1">
          <mxGeometry relative="1" as="geometry">
            <Array as="points">
              <mxPoint x="1080" y="320" />
              <mxPoint x="1080" y="215" />
            </Array>
          </mxGeometry>
        </mxCell>
        <mxCell id="9OXR8-5eXW10tZyGMjdz-427" style="edgeStyle=orthogonalEdgeStyle;rounded=0;orthogonalLoop=1;jettySize=auto;html=1;entryX=0.5;entryY=0;entryDx=0;entryDy=0;" parent="1c1d494c118603dd-1" source="60571a20871a0731-5" target="9OXR8-5eXW10tZyGMjdz-377" edge="1">
          <mxGeometry relative="1" as="geometry">
            <mxPoint x="1046" y="410" as="targetPoint" />
          </mxGeometry>
        </mxCell>
        <mxCell id="9OXR8-5eXW10tZyGMjdz-59" value="三方" style="swimlane;html=1;startSize=20;" parent="1c1d494c118603dd-1" vertex="1">
          <mxGeometry x="1693" y="20" width="250" height="1070" as="geometry">
            <mxRectangle x="500" y="20" width="40" height="970" as="alternateBounds" />
          </mxGeometry>
        </mxCell>
        <mxCell id="9OXR8-5eXW10tZyGMjdz-433" style="edgeStyle=orthogonalEdgeStyle;rounded=0;orthogonalLoop=1;jettySize=auto;html=1;entryX=0.5;entryY=0;entryDx=0;entryDy=0;" parent="9OXR8-5eXW10tZyGMjdz-59" source="9OXR8-5eXW10tZyGMjdz-428" target="9OXR8-5eXW10tZyGMjdz-434" edge="1">
          <mxGeometry relative="1" as="geometry">
            <mxPoint x="187.5" y="225" as="targetPoint" />
          </mxGeometry>
        </mxCell>
        <mxCell id="9OXR8-5eXW10tZyGMjdz-428" value="三方接口" style="rounded=1;whiteSpace=wrap;html=1;shadow=0;comic=0;labelBackgroundColor=none;strokeWidth=1;fontFamily=Verdana;fontSize=12;align=center;arcSize=50;" parent="9OXR8-5eXW10tZyGMjdz-59" vertex="1">
          <mxGeometry x="137.5" y="90" width="100" height="30" as="geometry" />
        </mxCell>
        <mxCell id="9OXR8-5eXW10tZyGMjdz-429" style="edgeStyle=orthogonalEdgeStyle;rounded=0;orthogonalLoop=1;jettySize=auto;html=1;entryX=0;entryY=0.5;entryDx=0;entryDy=0;" parent="9OXR8-5eXW10tZyGMjdz-59" source="9OXR8-5eXW10tZyGMjdz-431" target="9OXR8-5eXW10tZyGMjdz-428" edge="1">
          <mxGeometry relative="1" as="geometry" />
        </mxCell>
        <mxCell id="9OXR8-5eXW10tZyGMjdz-431" value="是否开关、限流" style="rhombus;whiteSpace=wrap;html=1;" parent="9OXR8-5eXW10tZyGMjdz-59" vertex="1">
          <mxGeometry x="22.5" y="65" width="80" height="80" as="geometry" />
        </mxCell>
        <mxCell id="9OXR8-5eXW10tZyGMjdz-446" style="edgeStyle=orthogonalEdgeStyle;rounded=0;orthogonalLoop=1;jettySize=auto;html=1;" parent="9OXR8-5eXW10tZyGMjdz-59" source="9OXR8-5eXW10tZyGMjdz-432" target="9OXR8-5eXW10tZyGMjdz-442" edge="1">
          <mxGeometry relative="1" as="geometry">
            <Array as="points">
              <mxPoint x="63" y="495" />
              <mxPoint x="118" y="495" />
            </Array>
          </mxGeometry>
        </mxCell>
        <mxCell id="9OXR8-5eXW10tZyGMjdz-432" value="fallback" style="rounded=1;whiteSpace=wrap;html=1;shadow=0;comic=0;labelBackgroundColor=none;strokeWidth=1;fontFamily=Verdana;fontSize=12;align=center;arcSize=50;" parent="9OXR8-5eXW10tZyGMjdz-59" vertex="1">
          <mxGeometry x="12.5" y="192" width="100" height="30" as="geometry" />
        </mxCell>
        <mxCell id="9OXR8-5eXW10tZyGMjdz-430" style="edgeStyle=orthogonalEdgeStyle;rounded=0;orthogonalLoop=1;jettySize=auto;html=1;entryX=0.5;entryY=0;entryDx=0;entryDy=0;" parent="9OXR8-5eXW10tZyGMjdz-59" source="9OXR8-5eXW10tZyGMjdz-431" target="9OXR8-5eXW10tZyGMjdz-432" edge="1">
          <mxGeometry relative="1" as="geometry">
            <mxPoint x="62.5" y="187" as="targetPoint" />
          </mxGeometry>
        </mxCell>
        <mxCell id="9OXR8-5eXW10tZyGMjdz-435" style="edgeStyle=orthogonalEdgeStyle;rounded=0;orthogonalLoop=1;jettySize=auto;html=1;entryX=0.5;entryY=0;entryDx=0;entryDy=0;" parent="9OXR8-5eXW10tZyGMjdz-59" source="9OXR8-5eXW10tZyGMjdz-434" target="9OXR8-5eXW10tZyGMjdz-436" edge="1">
          <mxGeometry relative="1" as="geometry">
            <mxPoint x="187.5" y="405" as="targetPoint" />
          </mxGeometry>
        </mxCell>
        <mxCell id="9OXR8-5eXW10tZyGMjdz-434" value="结果是否正确" style="rhombus;whiteSpace=wrap;html=1;" parent="9OXR8-5eXW10tZyGMjdz-59" vertex="1">
          <mxGeometry x="147.5" y="222" width="80" height="80" as="geometry" />
        </mxCell>
        <mxCell id="9OXR8-5eXW10tZyGMjdz-445" style="edgeStyle=orthogonalEdgeStyle;rounded=0;orthogonalLoop=1;jettySize=auto;html=1;" parent="9OXR8-5eXW10tZyGMjdz-59" source="9OXR8-5eXW10tZyGMjdz-436" target="9OXR8-5eXW10tZyGMjdz-442" edge="1">
          <mxGeometry relative="1" as="geometry">
            <Array as="points">
              <mxPoint x="188" y="495" />
              <mxPoint x="118" y="495" />
            </Array>
          </mxGeometry>
        </mxCell>
        <mxCell id="9OXR8-5eXW10tZyGMjdz-436" value="处理结果" style="rounded=1;whiteSpace=wrap;html=1;shadow=0;comic=0;labelBackgroundColor=none;strokeWidth=1;fontFamily=Verdana;fontSize=12;align=center;arcSize=50;" parent="9OXR8-5eXW10tZyGMjdz-59" vertex="1">
          <mxGeometry x="137.5" y="405" width="100" height="30" as="geometry" />
        </mxCell>
        <mxCell id="9OXR8-5eXW10tZyGMjdz-442" value="" style="shape=mxgraph.bpmn.shape;html=1;verticalLabelPosition=bottom;labelBackgroundColor=#ffffff;verticalAlign=top;perimeter=ellipsePerimeter;outline=end;symbol=terminate;rounded=0;shadow=0;comic=0;strokeWidth=1;fontFamily=Verdana;fontSize=12;align=center;" parent="9OXR8-5eXW10tZyGMjdz-59" vertex="1">
          <mxGeometry x="97.5" y="585" width="40" height="40" as="geometry" />
        </mxCell>
        <mxCell id="9OXR8-5eXW10tZyGMjdz-447" style="edgeStyle=elbowEdgeStyle;rounded=0;orthogonalLoop=1;jettySize=auto;html=1;elbow=vertical;curved=0;entryX=0;entryY=0.5;entryDx=0;entryDy=0;" parent="1c1d494c118603dd-1" source="9OXR8-5eXW10tZyGMjdz-415" target="9OXR8-5eXW10tZyGMjdz-431" edge="1">
          <mxGeometry relative="1" as="geometry">
            <Array as="points">
              <mxPoint x="1610" y="125" />
            </Array>
          </mxGeometry>
        </mxCell>
        <mxCell id="9OXR8-5eXW10tZyGMjdz-448" style="edgeStyle=orthogonalEdgeStyle;rounded=0;orthogonalLoop=1;jettySize=auto;html=1;entryX=1;entryY=0.5;entryDx=0;entryDy=0;" parent="1c1d494c118603dd-1" source="9OXR8-5eXW10tZyGMjdz-366" edge="1" target="9OXR8-5eXW10tZyGMjdz-98">
          <mxGeometry relative="1" as="geometry">
            <mxPoint x="140" y="385" as="targetPoint" />
          </mxGeometry>
        </mxCell>
      </root>
    </mxGraphModel>
  </diagram>
</mxfile>
